# Blender v2.90.1 OBJ File: ''
# www.blender.org
o Text
v 0.773000 0.594000 0.000000
v 0.339000 0.000000 0.000000
v 0.954000 0.000000 0.000000
v 0.954000 0.088000 0.000000
v 0.520000 0.088000 0.000000
v 0.954000 0.682000 0.000000
v 0.366000 0.682000 0.000000
v 0.366000 0.594000 0.000000
v 0.283000 0.267000 0.000000
v 0.040000 0.267000 0.000000
v 0.040000 0.174000 0.000000
v 0.283000 0.174000 0.000000
v 0.773000 0.594000 0.136826
v 0.339000 -0.000000 0.136826
v 0.954000 -0.000000 0.136826
v 0.954000 0.088000 0.136826
v 0.520000 0.088000 0.136826
v 0.954000 0.682000 0.136826
v 0.366000 0.682000 0.136826
v 0.366000 0.594000 0.136826
v 0.283000 0.267000 0.136826
v 0.040000 0.267000 0.136826
v 0.040000 0.174000 0.136826
v 0.283000 0.174000 0.136826
vt 1.000000 0.000000
vt 0.857143 0.000000
vt 0.714286 0.000000
vt 0.000000 0.000000
vt 0.571429 0.000000
vt 0.142857 0.000000
vt 0.428571 0.000000
vt 0.285714 0.000000
vt 0.666667 0.000000
vt 0.333333 0.000000
vt 0.000000 0.000000
vt 1.000000 0.000000
vt 1.000000 0.000000
vt 0.714286 0.000000
vt 0.857143 0.000000
vt 0.000000 0.000000
vt 0.571429 0.000000
vt 0.142857 0.000000
vt 0.428571 0.000000
vt 0.285714 0.000000
vt 0.666667 0.000000
vt 0.000000 0.000000
vt 0.333333 0.000000
vt 1.000000 0.000000
vn 0.0000 0.0000 -1.0000
vn 0.0000 0.0000 1.0000
vn 0.0000 1.0000 0.0000
vn 0.0000 -1.0000 0.0000
vn 0.8074 -0.5899 0.0000
vn -1.0000 0.0000 0.0000
vn 1.0000 0.0000 0.0000
vn -0.8074 0.5899 0.0000
usemtl None
s off
f 8/1/1 7/2/1 6/3/1
f 8/1/1 6/3/1 1/4/1
f 1/4/1 6/3/1 5/5/1
f 2/6/1 1/4/1 5/5/1
f 2/6/1 5/5/1 4/7/1
f 2/6/1 4/7/1 3/8/1
f 11/9/1 10/10/1 9/11/1
f 11/9/1 9/11/1 12/12/1
f 20/13/2 18/14/2 19/15/2
f 20/13/2 13/16/2 18/14/2
f 13/16/2 17/17/2 18/14/2
f 14/18/2 17/17/2 13/16/2
f 14/18/2 16/19/2 17/17/2
f 14/18/2 15/20/2 16/19/2
f 23/21/2 21/22/2 22/23/2
f 23/21/2 24/24/2 21/22/2
f 6/3/3 7/2/3 19/15/3 18/14/3
f 11/9/4 12/12/4 24/24/4 23/21/4
f 5/5/5 6/3/5 18/14/5 17/17/5
f 10/10/6 11/9/6 23/21/6 22/23/6
f 8/1/4 1/4/4 13/16/4 20/13/4
f 4/7/3 5/5/3 17/17/3 16/19/3
f 12/12/7 9/11/7 21/22/7 24/24/7
f 7/2/6 8/1/6 20/13/6 19/15/6
f 1/4/8 2/6/8 14/18/8 13/16/8
f 2/6/4 3/8/4 15/20/4 14/18/4
f 9/11/3 10/10/3 22/23/3 21/22/3
f 3/8/7 4/7/7 16/19/7 15/20/7
