# Blender v2.90.1 OBJ File: ''
# www.blender.org
mtllib cube_stretched.mtl
o Cube_Cube.001
v -20.000000 -1.000000 20.000000
v -20.000000 1.000000 20.000000
v -20.000000 -1.000000 -20.000000
v -20.000000 1.000000 -20.000000
v 20.000000 -1.000000 20.000000
v 20.000000 1.000000 20.000000
v 20.000000 -1.000000 -20.000000
v 20.000000 1.000000 -20.000000
v -20.000000 -1.000000 20.000000
v -20.000000 1.000000 20.000000
v -20.000000 -1.000000 -20.000000
v -20.000000 1.000000 -20.000000
v 20.000000 -1.000000 20.000000
v 20.000000 1.000000 20.000000
v 20.000000 -1.000000 -20.000000
v 20.000000 1.000000 -20.000000
v -20.000000 -1.000000 20.000000
v -20.000000 1.000000 20.000000
v 20.000000 1.000000 20.000000
v 20.000000 -1.000000 20.000000
vt 0.375000 0.000000
vt 0.375000 0.250000
vt 0.625000 0.250000
vt 0.625000 0.000000
vt 0.375000 0.500000
vt 0.625000 0.500000
vt 0.375000 0.750000
vt 0.625000 0.750000
vt 0.375000 1.000000
vt 0.625000 1.000000
vt 0.125000 0.500000
vt 0.125000 0.750000
vt 0.875000 0.750000
vt 0.875000 0.500000
vt 0.375000 0.000000
vt 0.625000 0.000000
vt 0.625000 0.250000
vt 0.375000 0.250000
vt 0.625000 0.500000
vt 0.375000 0.500000
vt 0.625000 0.750000
vt 0.375000 0.750000
vt 0.375000 0.000000
vt 0.625000 0.000000
vt 0.125000 0.500000
vt 0.125000 0.750000
vt 0.875000 0.500000
vt 0.875000 0.750000
vt 0.375000 0.750000
vt 0.625000 0.750000
vt 0.625000 1.000000
vt 0.375000 1.000000
vt 0.125000 0.750000
vt 0.875000 0.750000
vn 1.0000 0.0000 0.0000
vn 0.0000 0.0000 1.0000
vn -1.0000 0.0000 0.0000
vn 0.0000 0.0000 -1.0000
vn 0.0000 1.0000 0.0000
vn 0.0000 -1.0000 0.0000
usemtl Material.001
s off
f 1/1/1 3/2/1 4/3/1 2/4/1
f 3/2/2 7/5/2 8/6/2 4/3/2
f 7/5/3 5/7/3 6/8/3 8/6/3
f 5/7/4 1/9/4 2/10/4 6/8/4
f 3/11/5 1/12/5 5/7/5 7/5/5
f 8/6/6 6/8/6 2/13/6 4/14/6
f 9/15/3 10/16/3 12/17/3 11/18/3
f 11/18/4 12/17/4 16/19/4 15/20/4
f 15/20/1 16/19/1 14/21/1 13/22/1
f 10/16/2 9/15/2 17/23/2 18/24/2
f 11/25/6 15/20/6 13/22/6 9/26/6
f 16/19/5 12/27/5 10/28/5 14/21/5
f 20/29/2 19/30/2 18/31/2 17/32/2
f 9/26/2 13/22/2 20/29/2 17/33/2
f 14/21/2 10/28/2 18/34/2 19/30/2
f 13/22/2 14/21/2 19/30/2 20/29/2
