# Blender v2.90.1 OBJ File: 'flyingV.blend'
# www.blender.org
mtllib flyingV.mtl
o Text
v -0.012893 0.468120 1.074287
v -0.654858 0.468120 -0.422906
v -0.441595 0.468120 -0.422906
v 0.004516 0.468120 0.619471
v 0.448451 0.468120 -0.422906
v 0.659538 0.468120 -0.422906
v 0.030630 0.468120 1.074287
v -0.012893 -0.445863 1.074287
v -0.654858 -0.445863 -0.422906
v -0.441595 -0.445863 -0.422906
v 0.004516 -0.445863 0.619471
v 0.448451 -0.445863 -0.422906
v 0.659538 -0.445863 -0.422906
v 0.030630 -0.445863 1.074287
v -0.012893 -0.445863 1.074287
v -0.084626 -0.416709 1.183094
v -0.137139 -0.337056 1.262747
v -0.156360 -0.228248 1.291902
v -0.156360 0.250505 1.291902
v -0.137139 0.359312 1.262747
v -0.084626 0.438965 1.183094
v -0.012893 0.468120 1.074287
v -0.654858 -0.445863 -0.422906
v -0.819900 -0.416709 -0.531713
v -0.940719 -0.337056 -0.611366
v -0.984942 -0.228248 -0.640521
v -0.984942 0.250505 -0.640521
v -0.940719 0.359312 -0.611366
v -0.819900 0.438965 -0.531713
v -0.654858 0.468120 -0.422906
v -0.441595 -0.445863 -0.422906
v -0.369808 -0.416709 -0.531713
v -0.317257 -0.337056 -0.611366
v -0.298021 -0.228248 -0.640521
v -0.298021 0.250505 -0.640521
v -0.317257 0.359312 -0.611366
v -0.369808 0.438965 -0.531713
v -0.441595 0.468120 -0.422906
v 0.004516 -0.445863 0.619471
v 0.004272 -0.416709 0.342356
v 0.004093 -0.337056 0.139494
v 0.004027 -0.228248 0.065241
v 0.004027 0.250505 0.065241
v 0.004093 0.359312 0.139494
v 0.004272 0.438965 0.342356
v 0.004516 0.468120 0.619471
v 0.448451 -0.445863 -0.422906
v 0.376527 -0.416709 -0.531713
v 0.323874 -0.337056 -0.611366
v 0.304602 -0.228248 -0.640521
v 0.304602 0.250505 -0.640521
v 0.323874 0.359312 -0.611366
v 0.376527 0.438965 -0.531713
v 0.448451 0.468120 -0.422906
v 0.659538 -0.445863 -0.422906
v 0.823261 -0.416709 -0.531713
v 0.943114 -0.337056 -0.611366
v 0.986984 -0.228248 -0.640521
v 0.986984 0.250505 -0.640521
v 0.943114 0.359312 -0.611366
v 0.823261 0.438965 -0.531713
v 0.659538 0.468120 -0.422906
v 0.030630 -0.445863 1.074287
v 0.102942 -0.416709 1.183094
v 0.155878 -0.337056 1.262747
v 0.175254 -0.228248 1.291902
v 0.175254 0.250505 1.291902
v 0.155878 0.359312 1.262747
v 0.102942 0.438965 1.183094
v 0.030630 0.468120 1.074287
v -0.156360 0.011128 1.291902
v -0.984942 0.011128 -0.640521
v -0.298021 0.011128 -0.640521
v 0.004027 0.011128 0.065241
v 0.304602 0.011128 -0.640521
v 0.986984 0.011128 -0.640521
v 0.175254 0.011128 1.291902
v 0.463101 -0.416709 0.325691
v 0.345084 -0.445863 0.325691
v 0.549496 -0.337056 0.325691
v 0.581119 -0.228248 0.325691
v 0.581119 0.250505 0.325691
v 0.549496 0.359312 0.325691
v 0.463101 0.438965 0.325691
v 0.345084 0.468120 0.325691
v 0.581119 0.011128 0.325691
v 0.283022 -0.416709 0.754392
v 0.187857 -0.445863 0.699989
v 0.352687 -0.337056 0.794219
v 0.378186 -0.228248 0.808796
v 0.378186 0.250505 0.808796
v 0.352687 0.359312 0.794219
v 0.283022 0.438965 0.754392
v 0.187857 0.468120 0.699989
v 0.378186 0.011128 0.808796
v 0.784051 0.011128 -0.157415
v 0.643181 -0.416709 -0.103011
v 0.502311 -0.445863 -0.048608
v 0.746305 -0.337056 -0.142838
v 0.784051 -0.228248 -0.157415
v 0.784051 0.250505 -0.157415
v 0.746305 0.359312 -0.142838
v 0.643181 0.438965 -0.103011
v 0.502311 0.468120 -0.048608
v -0.452263 -0.416709 0.325691
v -0.333875 -0.445863 0.325691
v -0.538929 -0.337056 0.325691
v -0.570651 -0.228248 0.325691
v -0.570651 0.250505 0.325691
v -0.538929 0.359312 0.325691
v -0.452263 0.438965 0.325691
v -0.333875 0.468120 0.325691
v -0.570651 0.011128 0.325691
v -0.363506 0.011128 0.808796
v -0.268445 -0.416709 0.754392
v -0.173384 -0.445863 0.699989
v -0.338034 -0.337056 0.794219
v -0.363506 -0.228248 0.808796
v -0.363506 0.250505 0.808796
v -0.338034 0.359312 0.794219
v -0.268445 0.438965 0.754392
v -0.173384 0.468120 0.699989
v -0.636082 -0.416709 -0.103011
v -0.494366 -0.445863 -0.048608
v -0.739824 -0.337056 -0.142838
v -0.777797 -0.228248 -0.157415
v -0.777797 0.250505 -0.157415
v -0.739824 0.359312 -0.142838
v -0.636082 0.438965 -0.103011
v -0.494366 0.468120 -0.048608
v -0.777797 0.011128 -0.157415
v 0.378186 0.011128 0.808796
v 0.581119 0.011128 0.325691
v 0.581119 0.250505 0.325691
v 0.378186 0.250505 0.808796
v 0.378186 0.011128 0.808796
v 0.581119 0.011128 0.325691
v 0.581119 0.250505 0.325691
v 0.378186 0.250505 0.808796
v 0.480733 0.011128 0.808796
v 0.683665 0.011128 0.325691
v 0.683665 0.250505 0.325691
v 0.480733 0.250505 0.808796
v -0.463731 0.250505 0.808796
v -0.670877 0.250505 0.325691
v -0.670877 0.011128 0.325691
v -0.463731 0.011128 0.808796
vt 0.406679 0.114246
vt 0.660804 0.187012
vt 0.660804 0.223210
vt 0.483877 0.111291
vt 0.660804 0.000111
vt 0.660804 0.035940
vt 0.406679 0.106858
vt 0.660804 0.259630
vt 0.406679 0.332396
vt 0.660804 0.223432
vt 0.483877 0.335351
vt 0.660804 0.446531
vt 0.660804 0.410702
vt 0.406679 0.339783
vt 0.370087 0.539340
vt 0.367583 0.450289
vt 0.406456 0.446541
vt 0.406456 0.572862
vt 0.348719 0.530917
vt 0.347194 0.452945
vt 0.333301 0.526824
vt 0.333482 0.455305
vt 0.318474 0.519031
vt 0.323598 0.460763
vt 0.292739 0.512275
vt 0.302631 0.470538
vt 0.313714 0.466221
vt 0.303647 0.511238
vt 0.282173 0.514258
vt 0.291560 0.475389
vt 0.271134 0.517205
vt 0.279866 0.481247
vt 0.358515 0.348752
vt 0.402328 0.341753
vt 0.332264 0.358999
vt 0.312755 0.369099
vt 0.283220 0.404956
vt 0.254346 0.454385
vt 0.253684 0.440814
vt 0.257088 0.466234
vt 0.262311 0.477846
vt 0.075124 0.115191
vt 0.026942 0.000111
vt 0.118570 0.217629
vt 0.152023 0.289675
vt 0.171551 0.406150
vt 0.204071 0.543341
vt 0.191078 0.522624
vt 0.217439 0.568328
vt 0.229432 0.593086
vt 0.028110 0.515595
vt 0.000111 0.530388
vt 0.048622 0.510644
vt 0.065921 0.509673
vt 0.093828 0.514194
vt 0.126745 0.525594
vt 0.121735 0.518715
vt 0.131095 0.532469
vt 0.135020 0.540612
vt 0.064906 0.579832
vt 0.036816 0.595929
vt 0.079113 0.571249
vt 0.088300 0.565577
vt 0.096380 0.561438
vt 0.111746 0.555168
vt 0.104460 0.557299
vt 0.119400 0.553223
vt 0.128158 0.551345
vt 0.225642 0.788849
vt 0.279221 0.858522
vt 0.352907 0.999889
vt 0.273884 0.898899
vt 0.219644 0.745258
vt 0.266487 0.803261
vt 0.220360 0.718529
vt 0.264380 0.769512
vt 0.213054 0.676810
vt 0.251946 0.715268
vt 0.208260 0.625058
vt 0.240432 0.648355
vt 0.239512 0.661023
vt 0.205749 0.635092
vt 0.210735 0.616175
vt 0.241181 0.637159
vt 0.213528 0.607408
vt 0.241984 0.626096
vt 0.377599 0.806493
vt 0.406456 0.951824
vt 0.353293 0.764831
vt 0.332757 0.741380
vt 0.303101 0.693834
vt 0.263065 0.637485
vt 0.273445 0.646289
vt 0.254010 0.630863
vt 0.244939 0.625078
vt 0.138223 0.583230
vt 0.171986 0.609161
vt 0.174163 0.638353
vt 0.135271 0.599895
vt 0.156615 0.570033
vt 0.185071 0.588721
vt 0.180290 0.595191
vt 0.149845 0.574207
vt 0.176089 0.601762
vt 0.143917 0.578465
vt 0.176340 0.667545
vt 0.132320 0.616561
vt 0.172800 0.687255
vt 0.125957 0.629252
vt 0.172064 0.719177
vt 0.118485 0.649504
vt 0.194861 0.797909
vt 0.115838 0.696919
vt 0.213054 0.676810
vt 0.205749 0.635092
vt 0.313350 0.577299
vt 0.308225 0.635566
vt 0.308225 0.635566
vt 0.313350 0.577299
vt 0.253671 0.589120
vt 0.262403 0.553163
vt 0.272785 0.553126
vt 0.263398 0.591995
vt 0.282848 0.554012
vt 0.272957 0.595748
vt 0.293580 0.556255
vt 0.283512 0.601272
vt 0.333119 0.598343
vt 0.332938 0.669861
vt 0.350244 0.608888
vt 0.351768 0.686860
vt 0.372591 0.628391
vt 0.375095 0.717442
vt 0.406456 0.699183
vt 0.406456 0.825504
vt 0.213054 0.676810
vt 0.205749 0.635092
vt 0.171986 0.609161
vt 0.174163 0.638353
vt 0.171986 0.609161
vt 0.205749 0.635092
vt 0.171986 0.609161
vt 0.174163 0.638353
vt 0.213054 0.676810
vt 0.174163 0.638353
vt 0.283512 0.601272
vt 0.293580 0.556255
vn 0.0000 1.0000 -0.0000
vn 0.0000 -1.0000 0.0000
vn -0.4595 -0.8660 0.1970
vn -0.3411 -0.9127 -0.2249
vn -0.1218 -0.9893 -0.0803
vn -0.2379 -0.9659 0.1020
vn -0.7959 -0.5000 0.3413
vn -0.6584 -0.6149 -0.4340
vn -0.9112 -0.1305 0.3907
vn -0.8177 -0.2021 -0.5390
vn -0.9191 0.0000 0.3941
vn -0.8349 0.0000 -0.5504
vn -0.7959 0.5000 0.3413
vn -0.6584 0.6149 -0.4340
vn -0.8177 0.2021 -0.5390
vn -0.9112 0.1305 0.3907
vn -0.4595 0.8660 0.1970
vn -0.3411 0.9127 -0.2249
vn -0.2379 0.9659 0.1020
vn -0.1218 0.9893 -0.0803
vn 0.2787 -0.8625 -0.4224
vn 0.1202 -0.9759 -0.1822
vn 0.4713 -0.5172 -0.7144
vn 0.5447 -0.1470 -0.8256
vn 0.5507 0.0000 -0.8347
vn 0.4713 0.5172 -0.7144
vn 0.5447 0.1470 -0.8256
vn 0.2787 0.8625 -0.4224
vn 0.1202 0.9759 -0.1822
vn -0.0001 -0.9901 -0.1404
vn -0.0001 -0.9945 -0.1046
vn -0.0004 -0.8842 -0.4670
vn -0.0008 -0.3600 -0.9330
vn -0.0009 0.0000 -1.0000
vn -0.0004 0.8842 -0.4670
vn -0.0008 0.3600 -0.9330
vn -0.0001 0.9901 -0.1404
vn -0.0001 0.9945 -0.1046
vn -0.2790 -0.8625 -0.4221
vn -0.1203 -0.9759 -0.1820
vn -0.4719 -0.5173 -0.7139
vn -0.5454 -0.1470 -0.8251
vn -0.5514 0.0000 -0.8342
vn -0.4719 0.5173 -0.7139
vn -0.5454 0.1470 -0.8251
vn -0.2790 0.8625 -0.4221
vn -0.1203 0.9759 -0.1820
vn 0.3415 -0.9120 -0.2270
vn 0.1222 -0.9892 -0.0812
vn 0.6577 -0.6135 -0.4371
vn 0.8158 -0.2013 -0.5422
vn 0.8328 0.0000 -0.5535
vn 0.6577 0.6135 -0.4371
vn 0.8158 0.2013 -0.5422
vn 0.3415 0.9120 -0.2270
vn 0.1222 0.9892 -0.0812
vn 0.4610 -0.8660 0.1936
vn 0.2799 -0.8627 0.4212
vn 0.1205 -0.9760 0.1814
vn 0.2386 -0.9659 0.1002
vn 0.7984 -0.5000 0.3354
vn 0.4736 -0.5177 0.7125
vn 0.9141 -0.1305 0.3840
vn 0.5474 -0.1472 0.8238
vn 0.6584 0.0000 0.7526
vn 0.5535 0.0000 0.8328
vn 0.7984 0.5000 0.3354
vn 0.4736 0.5177 0.7125
vn 0.5474 0.1472 0.8238
vn 0.6479 0.1241 0.7515
vn 0.4610 0.8660 0.1936
vn 0.2799 0.8627 0.4212
vn 0.2386 0.9659 0.1002
vn 0.1205 0.9760 0.1814
vn -0.2786 -0.8625 0.4225
vn -0.1202 -0.9759 0.1823
vn -0.4711 -0.5172 0.7146
vn -0.5444 -0.1469 0.8258
vn -0.5504 0.0000 0.8349
vn -0.4711 0.5172 0.7146
vn -0.5444 0.1469 0.8258
vn -0.2786 0.8625 0.4225
vn -0.1202 0.9759 0.1823
vn 0.9141 0.1305 0.3840
vn 0.9219 0.0000 0.3872
vn 0.0000 0.0000 1.0000
vn -0.9081 -0.4143 0.0600
vn -0.7672 -0.2065 0.6072
vn -0.4396 -0.6017 0.6668
vn -0.6923 -0.5590 -0.4564
vn -0.8340 0.5495 0.0481
vn -0.7335 0.3429 0.5867
vn 0.0000 -0.2416 0.9704
vn 0.0000 0.2416 0.9704
vn 0.0000 0.7816 0.6237
vn 0.4423 0.6012 0.6655
vn 0.6904 0.5593 -0.4588
vn 0.0000 -0.7816 0.6237
vn 0.4423 -0.6012 0.6655
vn 0.6904 -0.5593 -0.4588
vn -0.4396 0.6017 0.6668
vn -0.6923 0.5590 -0.4564
usemtl Material.001
s off
f 1/1/1 3/2/1 2/3/1
f 1/1/1 4/4/1 3/2/1
f 4/4/1 6/5/1 5/6/1
f 4/4/1 7/7/1 6/5/1
f 1/1/1 7/7/1 4/4/1
f 10/8/2 8/9/2 9/10/2
f 11/11/2 8/9/2 10/8/2
f 13/12/2 11/11/2 12/13/2
f 14/14/2 11/11/2 13/12/2
f 14/14/2 8/9/2 11/11/2
s 1
f 123/15/3 24/16/4 23/17/5 124/18/6
f 125/19/7 25/20/8 24/16/4 123/15/3
f 126/21/9 26/22/10 25/20/8 125/19/7
f 131/23/11 72/24/12 26/22/10 126/21/9
f 128/25/13 28/26/14 27/27/15 127/28/16
f 129/29/17 29/30/18 28/26/14 128/25/13
f 130/31/19 30/32/20 29/30/18 129/29/17
f 24/16/4 32/33/21 31/34/22 23/17/5
f 25/20/8 33/35/23 32/33/21 24/16/4
f 26/22/10 34/36/24 33/35/23 25/20/8
f 72/24/12 73/37/25 34/36/24 26/22/10
f 28/26/14 36/38/26 35/39/27 27/27/15
f 29/30/18 37/40/28 36/38/26 28/26/14
f 30/32/20 38/41/29 37/40/28 29/30/18
f 32/33/21 40/42/30 39/43/31 31/34/22
f 33/35/23 41/44/32 40/42/30 32/33/21
f 34/36/24 42/45/33 41/44/32 33/35/23
f 73/37/25 74/46/34 42/45/33 34/36/24
f 36/38/26 44/47/35 43/48/36 35/39/27
f 37/40/28 45/49/37 44/47/35 36/38/26
f 38/41/29 46/50/38 45/49/37 37/40/28
f 40/42/30 48/51/39 47/52/40 39/43/31
f 41/44/32 49/53/41 48/51/39 40/42/30
f 42/45/33 50/54/42 49/53/41 41/44/32
f 74/46/34 75/55/43 50/54/42 42/45/33
f 44/47/35 52/56/44 51/57/45 43/48/36
f 45/49/37 53/58/46 52/56/44 44/47/35
f 46/50/38 54/59/47 53/58/46 45/49/37
f 48/51/39 56/60/48 55/61/49 47/52/40
f 49/53/41 57/62/50 56/60/48 48/51/39
f 50/54/42 58/63/51 57/62/50 49/53/41
f 75/55/43 76/64/52 58/63/51 50/54/42
f 52/56/44 60/65/53 59/66/54 51/57/45
f 53/58/46 61/67/55 60/65/53 52/56/44
f 54/59/47 62/68/56 61/67/55 53/58/46
f 87/69/57 64/70/58 63/71/59 88/72/60
f 89/73/61 65/74/62 64/70/58 87/69/57
f 90/75/63 66/76/64 65/74/62 89/73/61
f 95/77/65 77/78/66 66/76/64 90/75/63
f 92/79/67 68/80/68 67/81/69 91/82/70
f 93/83/71 69/84/72 68/80/68 92/79/67
f 94/85/73 70/86/74 69/84/72 93/83/71
f 64/70/58 16/87/75 15/88/76 63/71/59
f 65/74/62 17/89/77 16/87/75 64/70/58
f 66/76/64 18/90/78 17/89/77 65/74/62
f 77/78/66 71/91/79 18/90/78 66/76/64
f 68/80/68 20/92/80 19/93/81 67/81/69
f 69/84/72 21/94/82 20/92/80 68/80/68
f 70/86/74 22/95/83 21/94/82 69/84/72
f 67/81/69 19/93/81 71/91/79 77/78/66
f 91/82/70 67/81/69 77/78/66 95/77/65
f 51/57/45 59/66/54 76/64/52 75/55/43
f 43/48/36 51/57/45 75/55/43 74/46/34
f 35/39/27 43/48/36 74/46/34 73/37/25
f 27/27/15 35/39/27 73/37/25 72/24/12
f 127/28/16 27/27/15 72/24/12 131/23/11
f 101/96/84 82/97/70 86/98/65 96/99/85
f 104/100/73 85/101/73 84/102/71 103/103/71
f 103/103/71 84/102/71 83/104/67 102/105/67
f 102/105/67 83/104/67 82/97/70 101/96/84
f 96/99/85 86/98/65 81/106/63 100/107/63
f 100/107/63 81/106/63 80/108/61 99/109/61
f 99/109/61 80/108/61 78/110/57 97/111/57
f 97/111/57 78/110/57 79/112/60 98/113/60
f 91/82/70 95/77/65 132/114/86 135/115/86
f 85/101/73 94/85/73 93/83/71 84/102/71
f 84/102/71 93/83/71 92/79/67 83/104/67
f 83/104/67 92/79/67 91/82/70 82/97/70
f 86/98/65 95/77/65 90/75/63 81/106/63
f 81/106/63 90/75/63 89/73/61 80/108/61
f 80/108/61 89/73/61 87/69/57 78/110/57
f 78/110/57 87/69/57 88/72/60 79/112/60
f 56/60/48 97/111/57 98/113/60 55/61/49
f 57/62/50 99/109/61 97/111/57 56/60/48
f 58/63/51 100/107/63 99/109/61 57/62/50
f 76/64/52 96/99/85 100/107/63 58/63/51
f 60/65/53 102/105/67 101/96/84 59/66/54
f 61/67/55 103/103/71 102/105/67 60/65/53
f 62/68/56 104/100/73 103/103/71 61/67/55
f 59/66/54 101/96/84 96/99/85 76/64/52
f 113/116/87 114/117/88 147/118/89 146/119/90
f 122/120/19 112/121/19 111/122/17 121/123/17
f 121/123/17 111/122/17 110/124/13 120/125/13
f 120/125/13 110/124/13 109/126/91 119/127/92
f 114/117/88 113/116/87 108/128/9 118/129/9
f 118/129/9 108/128/9 107/130/7 117/131/7
f 117/131/7 107/130/7 105/132/3 115/133/3
f 115/133/3 105/132/3 106/134/6 116/135/6
f 16/87/75 115/133/3 116/135/6 15/88/76
f 17/89/77 117/131/7 115/133/3 16/87/75
f 18/90/78 118/129/9 117/131/7 17/89/77
f 71/91/79 114/117/88 118/129/9 18/90/78
f 20/92/80 120/125/13 119/127/92 19/93/81
f 21/94/82 121/123/17 120/125/13 20/92/80
f 22/95/83 122/120/19 121/123/17 21/94/82
f 19/93/81 119/127/92 114/117/88 71/91/79
f 109/126/91 127/28/16 131/23/11 113/116/87
f 112/121/19 130/31/19 129/29/17 111/122/17
f 111/122/17 129/29/17 128/25/13 110/124/13
f 110/124/13 128/25/13 127/28/16 109/126/91
f 113/116/87 131/23/11 126/21/9 108/128/9
f 108/128/9 126/21/9 125/19/7 107/130/7
f 107/130/7 125/19/7 123/15/3 105/132/3
f 105/132/3 123/15/3 124/18/6 106/134/6
f 135/115/86 132/114/86 136/136/93 139/137/94
f 86/98/65 82/97/70 134/138/86 133/139/86
f 82/97/70 91/82/70 135/115/86 134/138/86
f 95/77/65 86/98/65 133/139/86 132/114/86
f 138/140/95 139/137/94 143/141/96 142/142/97
f 133/139/86 134/138/86 138/140/95 137/143/98
f 134/138/86 135/115/86 139/137/94 138/140/95
f 132/114/86 133/139/86 137/143/98 136/136/93
f 142/142/97 143/141/96 140/144/99 141/145/100
f 136/136/93 137/143/98 141/145/100 140/144/99
f 139/137/94 136/136/93 140/144/99 143/141/96
f 137/143/98 138/140/95 142/142/97 141/145/100
f 144/146/101 145/147/102 146/119/90 147/118/89
f 119/127/92 109/126/91 145/147/102 144/146/101
f 114/117/88 119/127/92 144/146/101 147/118/89
f 109/126/91 113/116/87 146/119/90 145/147/102
